<?xml version="1.0" standalone="no"?>
<!DOCTYPE svg PUBLIC "-//W3C//DTD SVG 20010904//EN"
 "http://www.w3.org/TR/2001/REC-SVG-20010904/DTD/svg10.dtd">
<svg version="1.0" xmlns="http://www.w3.org/2000/svg"
 width="700.000000pt" height="700.000000pt" viewBox="0 0 700.000000 700.000000"
 preserveAspectRatio="xMidYMid meet">
<metadata>
Created by potrace 1.14, written by Peter Selinger 2001-2017
</metadata>
<g transform="translate(0.000000,700.000000) scale(0.100000,-0.100000)"
fill="#000000" stroke="none">
<path d="M3338 5985 c-2 -2 -37 -6 -78 -9 -146 -14 -182 -25 -194 -63 -7 -22
-74 -307 -80 -336 -14 -73 -9 -69 -152 -115 -73 -24 -196 -74 -271 -112 -127
-62 -140 -67 -163 -55 -14 7 -94 56 -179 109 -112 70 -163 96 -187 96 -93 0
-584 -490 -584 -583 0 -30 27 -80 158 -290 l62 -98 -70 -142 c-38 -78 -89
-201 -112 -274 l-43 -132 -90 -21 c-49 -12 -99 -24 -110 -26 -11 -2 -65 -15
-119 -28 -103 -25 -134 -46 -137 -91 0 -11 -2 -29 -5 -40 -23 -114 -23 -537 0
-650 3 -11 5 -29 5 -40 3 -49 32 -65 177 -100 76 -19 171 -42 210 -51 l72 -17
16 -61 c36 -129 98 -277 190 -453 l17 -31 -111 -178 c-129 -207 -131 -215 -68
-295 118 -151 271 -306 420 -426 87 -69 103 -78 138 -74 13 2 119 64 308 181
l63 40 140 -70 c77 -38 200 -88 274 -112 143 -46 138 -42 152 -118 5 -30 60
-260 74 -313 16 -59 35 -67 204 -83 147 -15 459 -8 585 12 77 13 78 15 155
345 l27 115 96 29 c54 15 102 31 107 35 6 4 33 15 60 25 28 10 101 44 164 75
90 46 119 56 135 49 12 -5 93 -54 181 -109 116 -72 169 -100 192 -100 24 0 51
15 110 63 43 34 85 69 94 77 235 220 379 389 379 445 0 28 -71 154 -187 333
l-34 53 54 107 c48 93 103 217 111 247 2 6 16 51 31 101 l29 91 160 38 c240
56 265 64 280 88 43 68 55 486 21 737 -2 14 -3 33 -4 43 -2 29 -45 62 -98 74
-26 6 -61 15 -78 19 -16 4 -35 8 -41 9 -6 2 -63 15 -125 30 l-114 27 -44 135
c-24 75 -75 198 -112 274 l-69 138 110 178 c124 200 128 217 80 279 -87 111
-109 136 -195 224 -105 108 -142 142 -244 224 -63 51 -89 66 -114 66 -24 0
-79 -29 -210 -110 l-177 -110 -108 54 c-125 63 -256 116 -363 147 l-77 22 -13
56 c-7 31 -14 61 -15 66 -11 50 -57 238 -64 266 -12 45 -43 66 -104 74 -25 3
-67 8 -93 11 -46 6 -400 14 -405 9z m302 -179 c63 -2 122 -7 131 -11 9 -3 21
-31 29 -68 41 -187 79 -329 93 -350 11 -17 33 -29 69 -37 156 -36 367 -122
515 -208 39 -23 84 -42 100 -42 16 0 58 19 98 43 39 24 118 74 178 110 l107
67 78 -67 c109 -95 238 -228 294 -303 l26 -35 -109 -175 c-64 -102 -109 -185
-109 -200 0 -14 9 -41 20 -60 36 -64 136 -265 142 -285 4 -11 16 -45 28 -75
11 -30 32 -95 45 -144 37 -135 27 -128 232 -176 261 -61 243 -53 244 -108 0
-26 2 -56 5 -67 11 -54 1 -425 -12 -446 -2 -4 -21 -10 -41 -14 -21 -3 -114
-25 -206 -47 -194 -47 -186 -40 -222 -176 -40 -151 -110 -315 -196 -464 -22
-36 -39 -79 -39 -95 0 -18 38 -89 109 -203 60 -96 106 -180 102 -186 -26 -48
-228 -256 -330 -340 l-63 -53 -62 39 c-229 144 -293 180 -320 180 -15 0 -54
-15 -85 -34 -132 -80 -284 -145 -456 -195 -60 -18 -120 -39 -132 -46 -17 -12
-28 -45 -58 -172 -20 -87 -43 -181 -51 -209 l-14 -52 -47 -5 c-68 -7 -485 -2
-503 7 -9 3 -21 32 -29 64 -66 293 -83 353 -106 368 -12 8 -65 26 -116 40
-149 41 -348 126 -470 199 -31 19 -70 35 -86 35 -16 0 -58 -18 -98 -43 -39
-24 -118 -73 -177 -110 l-106 -65 -64 52 c-73 60 -218 204 -269 266 -18 23
-42 51 -51 62 -18 21 -26 6 159 303 24 40 43 82 43 98 0 16 -19 61 -42 100
-82 141 -159 328 -197 477 -20 75 -33 100 -60 114 -14 8 -106 32 -204 55 -98
23 -185 45 -193 48 -8 3 -14 19 -15 37 0 17 -2 47 -4 66 -6 56 -5 320 0 375
10 89 11 92 57 100 50 9 49 9 108 25 25 7 56 14 69 16 69 13 158 37 181 49 28
15 41 39 60 115 37 145 129 364 204 489 20 32 36 72 36 87 0 20 -36 87 -109
204 -60 96 -106 180 -102 186 25 47 228 256 330 340 l63 53 82 -51 c200 -126
275 -168 301 -168 15 0 53 15 84 34 130 78 313 157 456 195 111 30 134 41 147
65 7 11 32 108 58 215 39 165 49 195 65 198 11 2 72 6 135 9 63 4 116 7 118 9
2 2 11 1 20 -1 9 -1 69 -5 132 -8z"/>
<path d="M3305 5020 c-103 -16 -130 -21 -208 -41 -414 -106 -784 -399 -994
-789 -81 -150 -152 -367 -168 -515 -4 -33 -9 -71 -11 -85 -5 -34 -5 -259 0
-290 3 -14 7 -43 10 -65 41 -326 200 -647 435 -885 118 -119 160 -153 276
-229 115 -75 331 -174 428 -196 12 -2 53 -11 91 -20 117 -26 165 -30 356 -29
204 1 313 18 483 75 339 113 664 372 846 674 79 131 165 333 185 435 2 14 10
50 16 80 6 30 14 73 16 95 2 21 7 51 9 65 6 28 6 249 1 295 -20 165 -54 305
-105 435 -88 221 -188 369 -370 550 -240 237 -536 385 -872 434 -110 17 -334
20 -424 6z m370 -174 c472 -66 868 -346 1079 -762 249 -493 187 -1086 -159
-1514 -372 -461 -987 -640 -1547 -451 -405 137 -727 456 -875 864 -13 38 -26
76 -28 85 -1 9 -8 35 -13 57 -6 22 -14 60 -17 85 -4 25 -10 63 -14 85 -12 68
-5 295 13 395 73 413 334 781 701 988 147 82 369 154 520 168 39 3 71 7 73 9
4 4 225 -3 267 -9z"/>
<path d="M3325 4605 c-28 -27 -27 -21 -30 -165 -3 -136 -1 -127 -32 -135 -95
-24 -263 -133 -352 -229 -20 -21 -41 -44 -47 -50 -26 -27 -94 -137 -122 -196
-29 -63 -58 -152 -68 -205 -2 -14 -6 -37 -9 -52 -3 -16 -5 -64 -6 -108 -2
-347 175 -647 478 -813 l68 -37 1 -130 c2 -171 0 -162 29 -190 39 -40 111 -28
134 22 6 13 11 73 11 134 l0 110 33 -6 c27 -5 58 -8 150 -14 4 -1 7 -50 7
-110 0 -104 1 -109 26 -135 28 -28 70 -34 105 -16 35 19 45 59 45 171 l-1 106
75 22 c129 39 307 141 359 207 36 46 24 102 -28 128 -37 20 -65 11 -136 -42
-86 -64 -192 -115 -285 -137 -67 -16 -215 -22 -270 -11 -183 38 -317 108 -428
226 -230 244 -263 624 -78 903 202 304 602 416 921 257 96 -48 109 -56 158
-97 20 -18 43 -33 50 -34 6 0 22 -2 35 -3 35 -4 82 44 82 85 0 59 -136 166
-295 229 l-69 29 -1 124 c-1 163 -23 199 -109 183 -52 -10 -66 -46 -66 -168
l0 -103 -94 0 -94 0 -4 118 c-3 112 -4 119 -28 137 -36 28 -85 26 -115 -5z"/>
</g>
</svg>
